<svg width="1200" height="1200" viewBox="0 0 1200 1200" fill="none" xmlns="http://www.w3.org/2000/svg">
  <defs>
    <linearGradient id="bgGradient" x1="0" y1="0" x2="1200" y2="1200" gradientUnits="userSpaceOnUse">
      <stop stop-color="#FF5A5F" />
      <stop offset="0.45" stop-color="#FFBC42" />
      <stop offset="1" stop-color="#3B82F6" />
    </linearGradient>
    <linearGradient id="shapeGradient" x1="0" y1="0" x2="1" y2="1">
      <stop offset="0" stop-color="#FFFFFF" stop-opacity="0.35" />
      <stop offset="1" stop-color="#FFFFFF" stop-opacity="0" />
    </linearGradient>
  </defs>

  <rect width="1200" height="1200" fill="url(#bgGradient)" />

  <path d="M0 750C270 620 420 820 660 780C900 740 980 520 1200 430V1200H0V750Z" fill="url(#shapeGradient)" />
  <path d="M0 540C220 440 320 640 520 620C720 600 820 380 1060 310V1200H0V540Z" fill="white" opacity="0.08" />
  <path d="M0 360C140 300 260 460 420 450C580 440 700 240 920 210V1200H0V360Z" fill="white" opacity="0.06" />

  <circle cx="300" cy="260" r="120" fill="white" opacity="0.12" />
  <circle cx="860" cy="180" r="90" fill="white" opacity="0.1" />
  <circle cx="720" cy="660" r="150" fill="white" opacity="0.08" />
</svg>
